<?xml version="1.0" encoding="UTF-8" standalone="no"?>
<!DOCTYPE svg PUBLIC "-//W3C//DTD SVG 1.1//EN"
 "http://www.w3.org/Graphics/SVG/1.1/DTD/svg11.dtd">
<!-- Generated by graphviz version 2.43.0 (0)
 -->
<!-- Title: %3 Pages: 1 -->
<svg width="206pt" height="404pt"
 viewBox="0.00 0.00 206.00 404.00" xmlns="http://www.w3.org/2000/svg" xmlns:xlink="http://www.w3.org/1999/xlink">
<g id="graph0" class="graph" transform="scale(1 1) rotate(0) translate(4 400)">
<title>%3</title>
<polygon fill="white" stroke="transparent" points="-4,4 -4,-400 202,-400 202,4 -4,4"/>
<!-- a -->
<g id="node1" class="node">
<title>a</title>
<ellipse fill="none" stroke="black" cx="99" cy="-378" rx="18" ry="18"/>
<text text-anchor="middle" x="99" y="-374.3" font-family="Times,serif" font-size="14.00">a</text>
</g>
<!-- b -->
<g id="node2" class="node">
<title>b</title>
<ellipse fill="none" stroke="black" cx="72" cy="-306" rx="18" ry="18"/>
<text text-anchor="middle" x="72" y="-302.3" font-family="Times,serif" font-size="14.00">b</text>
</g>
<!-- a&#45;&#45;b -->
<g id="edge1" class="edge">
<title>a&#45;&#45;b</title>
<path fill="none" stroke="black" d="M92.74,-360.76C88.38,-349.46 82.58,-334.44 78.23,-323.15"/>
</g>
<!-- c -->
<g id="node6" class="node">
<title>c</title>
<ellipse fill="none" stroke="black" cx="126" cy="-306" rx="18" ry="18"/>
<text text-anchor="middle" x="126" y="-302.3" font-family="Times,serif" font-size="14.00">c</text>
</g>
<!-- a&#45;&#45;c -->
<g id="edge5" class="edge">
<title>a&#45;&#45;c</title>
<path fill="none" stroke="black" d="M105.26,-360.76C109.62,-349.46 115.42,-334.44 119.77,-323.15"/>
</g>
<!-- d -->
<g id="node3" class="node">
<title>d</title>
<ellipse fill="none" stroke="black" cx="18" cy="-234" rx="18" ry="18"/>
<text text-anchor="middle" x="18" y="-230.3" font-family="Times,serif" font-size="14.00">d</text>
</g>
<!-- b&#45;&#45;d -->
<g id="edge2" class="edge">
<title>b&#45;&#45;d</title>
<path fill="none" stroke="black" d="M61.33,-291.17C51.86,-278.9 38.11,-261.06 28.65,-248.8"/>
</g>
<!-- e -->
<g id="node5" class="node">
<title>e</title>
<ellipse fill="none" stroke="black" cx="72" cy="-234" rx="18" ry="18"/>
<text text-anchor="middle" x="72" y="-230.3" font-family="Times,serif" font-size="14.00">e</text>
</g>
<!-- b&#45;&#45;e -->
<g id="edge4" class="edge">
<title>b&#45;&#45;e</title>
<path fill="none" stroke="black" d="M72,-287.7C72,-276.85 72,-262.92 72,-252.1"/>
</g>
<!-- g -->
<g id="node4" class="node">
<title>g</title>
<ellipse fill="none" stroke="black" cx="18" cy="-162" rx="18" ry="18"/>
<text text-anchor="middle" x="18" y="-158.3" font-family="Times,serif" font-size="14.00">g</text>
</g>
<!-- d&#45;&#45;g -->
<g id="edge3" class="edge">
<title>d&#45;&#45;g</title>
<path fill="none" stroke="black" d="M18,-215.7C18,-204.85 18,-190.92 18,-180.1"/>
</g>
<!-- f -->
<g id="node7" class="node">
<title>f</title>
<ellipse fill="none" stroke="black" cx="126" cy="-234" rx="18" ry="18"/>
<text text-anchor="middle" x="126" y="-230.3" font-family="Times,serif" font-size="14.00">f</text>
</g>
<!-- c&#45;&#45;f -->
<g id="edge6" class="edge">
<title>c&#45;&#45;f</title>
<path fill="none" stroke="black" d="M126,-287.7C126,-276.85 126,-262.92 126,-252.1"/>
</g>
<!-- k -->
<g id="node11" class="node">
<title>k</title>
<ellipse fill="none" stroke="black" cx="180" cy="-234" rx="18" ry="18"/>
<text text-anchor="middle" x="180" y="-230.3" font-family="Times,serif" font-size="14.00">k</text>
</g>
<!-- c&#45;&#45;k -->
<g id="edge10" class="edge">
<title>c&#45;&#45;k</title>
<path fill="none" stroke="black" d="M136.67,-291.17C146.14,-278.9 159.89,-261.06 169.35,-248.8"/>
</g>
<!-- h -->
<g id="node8" class="node">
<title>h</title>
<ellipse fill="none" stroke="black" cx="126" cy="-162" rx="18" ry="18"/>
<text text-anchor="middle" x="126" y="-158.3" font-family="Times,serif" font-size="14.00">h</text>
</g>
<!-- f&#45;&#45;h -->
<g id="edge7" class="edge">
<title>f&#45;&#45;h</title>
<path fill="none" stroke="black" d="M126,-215.7C126,-204.85 126,-190.92 126,-180.1"/>
</g>
<!-- i -->
<g id="node9" class="node">
<title>i</title>
<ellipse fill="none" stroke="black" cx="126" cy="-90" rx="18" ry="18"/>
<text text-anchor="middle" x="126" y="-86.3" font-family="Times,serif" font-size="14.00">i</text>
</g>
<!-- h&#45;&#45;i -->
<g id="edge8" class="edge">
<title>h&#45;&#45;i</title>
<path fill="none" stroke="black" d="M126,-143.7C126,-132.85 126,-118.92 126,-108.1"/>
</g>
<!-- j -->
<g id="node10" class="node">
<title>j</title>
<ellipse fill="none" stroke="black" cx="126" cy="-18" rx="18" ry="18"/>
<text text-anchor="middle" x="126" y="-14.3" font-family="Times,serif" font-size="14.00">j</text>
</g>
<!-- i&#45;&#45;j -->
<g id="edge9" class="edge">
<title>i&#45;&#45;j</title>
<path fill="none" stroke="black" d="M126,-71.7C126,-60.85 126,-46.92 126,-36.1"/>
</g>
</g>
</svg>
