
            <svg width="1020" height="460" version="1.1" xmlns="http://www.w3.org/2000/svg"><rect width="100%" height="100%" fill="white"/>
            
            <circle cx="390" cy="430" r="10" fill="none" stroke="black" stroke-width="1"/>
            
            <text x="384" y="434">23</text>
            
            <line x1="392" y1="419"  x2="403"  y2="360" stroke="black" stroke-width="1
            "/>
            <circle cx="105" cy="350" r="10" fill="none" stroke="black" stroke-width="1"/>
            
            <text x="102" y="354">6</text>
            
            <line x1="102" y1="342"  x2="78"  y2="278" stroke="black" stroke-width="1
            "/>
            <circle cx="405" cy="350" r="10" fill="none" stroke="black" stroke-width="1"/>
            
            <text x="399" y="354">36</text>
            
            <line x1="408" y1="342"  x2="432"  y2="278" stroke="black" stroke-width="1
            "/>
            <circle cx="465" cy="350" r="10" fill="none" stroke="black" stroke-width="1"/>
            
            <text x="459" y="354">49</text>
            
            <line x1="462" y1="342"  x2="438"  y2="278" stroke="black" stroke-width="1
            "/>
            <circle cx="765" cy="350" r="10" fill="none" stroke="black" stroke-width="1"/>
            
            <text x="759" y="354">61</text>
            
            <line x1="768" y1="342"  x2="792"  y2="278" stroke="black" stroke-width="1
            "/>
            <circle cx="75" cy="270" r="10" fill="none" stroke="black" stroke-width="1"/>
            
            <text x="72" y="274">4</text>
            
            <line x1="81" y1="262"  x2="129"  y2="198" stroke="black" stroke-width="1
            "/>
            <circle cx="435" cy="270" r="10" fill="none" stroke="black" stroke-width="1"/>
            
            <text x="429" y="274">48</text>
            
            <line x1="429" y1="262"  x2="381"  y2="198" stroke="black" stroke-width="1
            "/>
            <circle cx="795" cy="270" r="10" fill="none" stroke="black" stroke-width="1"/>
            
            <text x="789" y="274">69</text>
            
            <line x1="801" y1="262"  x2="849"  y2="198" stroke="black" stroke-width="1
            "/>
            <circle cx="135" cy="190" r="10" fill="none" stroke="black" stroke-width="1"/>
            
            <text x="129" y="194">15</text>
            
            <line x1="143" y1="184"  x2="247"  y2="115" stroke="black" stroke-width="1
            "/>
            <circle cx="375" cy="190" r="10" fill="none" stroke="black" stroke-width="1"/>
            
            <text x="369" y="194">20</text>
            
            <line x1="367" y1="184"  x2="263"  y2="115" stroke="black" stroke-width="1
            "/>
            <circle cx="855" cy="190" r="10" fill="none" stroke="black" stroke-width="1"/>
            
            <text x="849" y="194">78</text>
            
            <line x1="847" y1="184"  x2="743"  y2="115" stroke="black" stroke-width="1
            "/>
            <circle cx="255" cy="110" r="10" fill="none" stroke="black" stroke-width="1"/>
            
            <text x="249" y="114">16</text>
            
            <line x1="264" y1="107"  x2="486"  y2="33" stroke="black" stroke-width="1
            "/>
            <circle cx="735" cy="110" r="10" fill="none" stroke="black" stroke-width="1"/>
            
            <text x="729" y="114">52</text>
            
            <line x1="726" y1="107"  x2="504"  y2="33" stroke="black" stroke-width="1
            "/>
            <circle cx="495" cy="30" r="10" fill="none" stroke="black" stroke-width="1"/>
            
            <text x="489" y="34">50</text>
            
            </svg>
            