
            <svg width="1980" height="780" version="1.1" xmlns="http://www.w3.org/2000/svg"><rect width="100%" height="100%" fill="white"/>
            
            <circle cx="690" cy="750" r="10" fill="none" stroke="black" stroke-width="1"/>
            
            <text x="684" y="754">38</text>
            
            <line x1="691" y1="742"  x2="704"  y2="638" stroke="black" stroke-width="1
            "/>
            <circle cx="720" cy="750" r="10" fill="none" stroke="black" stroke-width="1"/>
            
            <text x="714" y="754">45</text>
            
            <line x1="719" y1="742"  x2="706"  y2="638" stroke="black" stroke-width="1
            "/>
            <circle cx="1890" cy="750" r="10" fill="none" stroke="black" stroke-width="1"/>
            
            <text x="1884" y="754">98</text>
            
            <line x1="1891" y1="742"  x2="1904"  y2="638" stroke="black" stroke-width="1
            "/>
            <circle cx="645" cy="630" r="10" fill="none" stroke="black" stroke-width="1"/>
            
            <text x="639" y="634">32</text>
            
            <line x1="647" y1="622"  x2="673"  y2="518" stroke="black" stroke-width="1
            "/>
            <circle cx="705" cy="630" r="10" fill="none" stroke="black" stroke-width="1"/>
            
            <text x="699" y="634">44</text>
            
            <line x1="703" y1="622"  x2="677"  y2="518" stroke="black" stroke-width="1
            "/>
            <circle cx="1905" cy="630" r="10" fill="none" stroke="black" stroke-width="1"/>
            
            <text x="1899" y="634">99</text>
            
            <line x1="1903" y1="622"  x2="1877"  y2="518" stroke="black" stroke-width="1
            "/>
            <circle cx="675" cy="510" r="10" fill="none" stroke="black" stroke-width="1"/>
            
            <text x="669" y="514">33</text>
            
            <line x1="671" y1="502"  x2="619"  y2="398" stroke="black" stroke-width="1
            "/>
            <circle cx="1755" cy="510" r="10" fill="none" stroke="black" stroke-width="1"/>
            
            <text x="1749" y="514">78</text>
            
            <line x1="1759" y1="502"  x2="1811"  y2="398" stroke="black" stroke-width="1
            "/>
            <circle cx="1875" cy="510" r="10" fill="none" stroke="black" stroke-width="1"/>
            
            <text x="1869" y="514">91</text>
            
            <line x1="1871" y1="502"  x2="1819"  y2="398" stroke="black" stroke-width="1
            "/>
            <circle cx="135" cy="390" r="10" fill="none" stroke="black" stroke-width="1"/>
            
            <text x="132" y="394">2</text>
            
            <line x1="142" y1="383"  x2="248"  y2="277" stroke="black" stroke-width="1
            "/>
            <circle cx="615" cy="390" r="10" fill="none" stroke="black" stroke-width="1"/>
            
            <text x="609" y="394">23</text>
            
            <line x1="622" y1="383"  x2="728"  y2="277" stroke="black" stroke-width="1
            "/>
            <circle cx="1575" cy="390" r="10" fill="none" stroke="black" stroke-width="1"/>
            
            <text x="1569" y="394">65</text>
            
            <line x1="1582" y1="383"  x2="1688"  y2="277" stroke="black" stroke-width="1
            "/>
            <circle cx="1815" cy="390" r="10" fill="none" stroke="black" stroke-width="1"/>
            
            <text x="1809" y="394">87</text>
            
            <line x1="1808" y1="383"  x2="1702"  y2="277" stroke="black" stroke-width="1
            "/>
            <circle cx="255" cy="270" r="10" fill="none" stroke="black" stroke-width="1"/>
            
            <text x="252" y="274">7</text>
            
            <line x1="264" y1="265"  x2="486"  y2="154" stroke="black" stroke-width="1
            "/>
            <circle cx="735" cy="270" r="10" fill="none" stroke="black" stroke-width="1"/>
            
            <text x="729" y="274">48</text>
            
            <line x1="726" y1="265"  x2="504"  y2="154" stroke="black" stroke-width="1
            "/>
            <circle cx="1695" cy="270" r="10" fill="none" stroke="black" stroke-width="1"/>
            
            <text x="1689" y="274">77</text>
            
            <line x1="1686" y1="265"  x2="1464"  y2="154" stroke="black" stroke-width="1
            "/>
            <circle cx="495" cy="150" r="10" fill="none" stroke="black" stroke-width="1"/>
            
            <text x="489" y="154">22</text>
            
            <line x1="505" y1="147"  x2="965"  y2="32" stroke="black" stroke-width="1
            "/>
            <circle cx="1455" cy="150" r="10" fill="none" stroke="black" stroke-width="1"/>
            
            <text x="1449" y="154">62</text>
            
            <line x1="1445" y1="147"  x2="985"  y2="32" stroke="black" stroke-width="1
            "/>
            <circle cx="975" cy="30" r="10" fill="none" stroke="black" stroke-width="1"/>
            
            <text x="969" y="34">50</text>
            
            </svg>
            